<?xml version="1.0" encoding="UTF-8" standalone="no"?>
<svg
   width="17.999758"
   height="16.226999"
   viewBox="0 0 4.7623956 4.2933293"
   version="1.1"
   id="svg14"
   xmlns="http://www.w3.org/2000/svg"
   xmlns:svg="http://www.w3.org/2000/svg">
  <defs
     id="defs14" />
  <path
     d="M 0.61762502,1.0508277 1.2268303,-5.736842e-4 3.6800646,-0.001 4.2860725,1.0610592 4.2868186,3.1853909 3.6802777,4.2465975 1.2276829,4.2474501 0.61144344,3.1853909 Z"
     style="display:inline;fill:#4d4d4d;fill-opacity:1;stroke-width:0.028199"
     id="path1" />
  <path
     d="M 0.61144344,3.1850712 H 1.7172001 L 1.1098066,2.1149119 1.6036935,1.0510408 0.61762502,1.0508277 0,2.1235448"
     style="fill:#ededed;fill-opacity:1;fill-rule:nonzero;stroke:none;stroke-width:0.0352487"
     id="path2" />
  <path
     d="M 2.0524974,3.1850712 H 2.860579 L 3.5752975,2.1434751 2.8730488,1.0610592 H 1.922258 L 1.3496093,2.1070251 Z"
     style="fill:#e0e0e0;fill-opacity:1;fill-rule:nonzero;stroke:none;stroke-width:0.0352487"
     id="path3" />
  <path
     d="M 0,2.1234382 0.61155002,3.1853909 H 1.7172001 l -0.600679,-1.058329 z"
     style="fill:#acacac;fill-opacity:1;fill-rule:nonzero;stroke:none;stroke-width:0.0352487"
     id="path4" />
  <path
     d="M 1.3614395,2.1236514 2.0524974,3.1854975 H 2.860579 L 3.5641067,2.1240777 Z"
     style="fill:#9e9e9e;fill-opacity:1;fill-rule:nonzero;stroke:none;stroke-width:0.0352487"
     id="path5" />
  <path
     d="M 1.6351343,2.1243974 1.4264527,2.1850409 1.226404,2.1240777 2.0435448,0.7078566 2.2479632,1.0612724"
     style="fill:#00b8e3;fill-opacity:1;fill-rule:nonzero;stroke:none;stroke-width:0.0352487"
     id="path6" />
  <path
     d="M 2.2472172,3.1851777 2.043758,3.5402988 1.5009514,2.9555001 1.2259777,2.124504 v -4.263e-4 h 0.40905"
     style="fill:#33c6e9;fill-opacity:1;fill-rule:nonzero;stroke:none;stroke-width:0.0352487"
     id="path7" />
  <path
     d="m 1.226404,2.1240777 h -3.198e-4 v 3.197e-4 L 1.0216658,2.4784527 0.81650134,2.1259961 1.0245435,1.7651198 1.6350277,0.7078566 h 0.4086237"
     style="fill:#008aaa;fill-opacity:1;fill-rule:nonzero;stroke:none;stroke-width:0.0352487"
     id="path8" />
  <path
     d="M 3.4750067,3.1850712 H 4.7124949 L 4.7117488,1.0609527 H 3.4749001 Z"
     style="fill:#d4d4d4;fill-opacity:1;fill-rule:nonzero;stroke:none;stroke-width:0.0352487"
     id="path9" />
  <path
     d="m 3.4750067,2.1270619 v 1.058329 h 1.23525 v -1.058329 z"
     style="fill:#919191;fill-opacity:1;fill-rule:nonzero;stroke:none;stroke-width:0.0352487"
     id="path10" />
  <path
     d="M 2.0438645,3.5406185 H 1.6350277 L 1.0216658,2.4784527 1.2260842,2.124504 Z"
     style="fill:#00b8e3;fill-opacity:1;fill-rule:nonzero;stroke:none;stroke-width:0.0352487"
     id="path11" />
  <path
     d="M 3.6788922,2.1240777 2.8615382,3.5404054 C 2.7864001,3.4299896 2.6576527,3.1853909 2.6576527,3.1853909 L 3.2708014,2.1239711 Z"
     style="fill:#008aaa;fill-opacity:1;fill-rule:nonzero;stroke:none;stroke-width:0.0352487"
     id="path12" />
  <path
     d="M 3.2698422,3.5404054 2.8615382,3.5402988 3.6789988,2.1240777 3.8833106,1.7705553 4.0880488,2.126529 M 3.6788922,2.1240777 H 3.270908 L 2.6575461,1.0611658 2.860579,0.70796318 3.3570238,1.3391237 Z"
     style="fill:#00b8e3;fill-opacity:1;fill-rule:nonzero;stroke:none;stroke-width:0.0352487"
     id="path13" />
  <path
     d="m 3.8832041,1.770129 v 3.197e-4 L 3.6788922,2.1240777 2.8606856,0.70806976 3.2700554,0.70828292 Z"
     style="fill:#33c6e9;fill-opacity:1;fill-rule:nonzero;stroke:none;stroke-width:0.0352487"
     id="path14" />
</svg>
